<?xml version="1.0" encoding="UTF-8" standalone="no"?>
<!-- Created with Inkscape (http://www.inkscape.org/) -->

<svg
  xmlns:dc="http://purl.org/dc/elements/1.1/"
  xmlns:cc="http://creativecommons.org/ns#"
  xmlns:rdf="http://www.w3.org/1999/02/22-rdf-syntax-ns#"
  xmlns:svg="http://www.w3.org/2000/svg"
  xmlns="http://www.w3.org/2000/svg"
  xmlns:xlink="http://www.w3.org/1999/xlink"
  xmlns:sodipodi="http://sodipodi.sourceforge.net/DTD/sodipodi-0.dtd"
  xmlns:inkscape="http://www.inkscape.org/namespaces/inkscape"
  width="191mm"
  height="72.725998mm"
  viewBox="0 0 191 72.725998"
  version="1.1"
  id="svg10679"
  inkscape:version="0.92.1 r"
  sodipodi:docname="pousadacaminhodosventos-logo.svg">
  <defs id="defs10673">
    <path
      style="fill:none;fill-rule:evenodd;stroke:none;stroke-width:0.26458332px;stroke-linecap:butt;stroke-linejoin:miter;stroke-opacity:1"
      d="m 99.833926,38.127103 c 0,0 3.986774,11.082584 4.223014,11.555055 0.23623,0.472469 2.57959,6.425357 2.81583,7.039568 0.23623,0.614212 1.2811,3.19376 2.0242,4.744215 0.42124,0.87891 0.95236,1.634135 1.37758,2.579073 0.42523,0.944943 1.22842,2.456845 1.7009,3.212799 0.47247,0.755949 1.88988,3.307293 2.12611,3.921503 0.23624,0.614214 1.22842,2.598587 1.65365,3.212796 0.42522,0.614211 1.88988,2.4096 2.59858,3.165551 0.70871,0.755952 3.3073,3.638021 3.77976,3.96875 0.47248,0.33073 4.29948,3.685268 4.72471,3.779761 0.42522,0.0945 2.55134,1.228423 3.02381,1.322917"
      id="path7421-2"
      inkscape:connector-curvature="0"
      sodipodi:nodetypes="cccssssccccc"/>
    <path
      style="fill:none;fill-rule:evenodd;stroke:none;stroke-width:0.26458332px;stroke-linecap:butt;stroke-linejoin:miter;stroke-opacity:1"
      d="m 99.833926,38.127103 c 0,0 3.986774,11.082584 4.223014,11.555055 0.23623,0.472469 2.57959,6.425357 2.81583,7.039568 0.23623,0.614212 1.2811,3.19376 2.0242,4.744215 0.42124,0.87891 0.95236,1.634135 1.37758,2.579073 0.42523,0.944943 1.22842,2.456845 1.7009,3.212799 0.47247,0.755949 1.88988,3.307293 2.12611,3.921503 0.23624,0.614214 1.22842,2.598587 1.65365,3.212796 0.42522,0.614211 1.88988,2.4096 2.59858,3.165551 0.70871,0.755952 3.3073,3.638021 3.77976,3.96875 0.47248,0.33073 4.29948,3.685268 4.72471,3.779761 0.42522,0.0945 2.55134,1.228423 3.02381,1.322917"
      id="path7421-2-3"
      inkscape:connector-curvature="0"
      sodipodi:nodetypes="cccssssccccc"/>
  </defs>
  <sodipodi:namedview
    id="base"
    pagecolor="#ffffff"
    bordercolor="#666666"
    borderopacity="1.0"
    inkscape:pageopacity="0.0"
    inkscape:pageshadow="2"
    inkscape:zoom="3.959798"
    inkscape:cx="562.71897"
    inkscape:cy="104.0658"
    inkscape:document-units="mm"
    inkscape:current-layer="bike"
    showgrid="false"
    inkscape:window-width="2560"
    inkscape:window-height="1048"
    inkscape:window-x="0"
    inkscape:window-y="0"
    inkscape:window-maximized="1"/>
  <metadata id="metadata10676">
    <rdf:RDF>
      <cc:Work rdf:about="">
        <dc:format>image/svg+xml</dc:format>
        <dc:type rdf:resource="http://purl.org/dc/dcmitype/StillImage"/>
        <dc:title></dc:title>
      </cc:Work>
    </rdf:RDF>
  </metadata>
  <g inkscape:label="Layer 1" inkscape:groupmode="layer" id="layer1" transform="translate(0,-224.274)">
    <path
      style="display:inline;fill:#009688;fill-opacity:1;fill-rule:evenodd;stroke:none;stroke-width:0.2602911px;stroke-linecap:round;stroke-linejoin:round;stroke-opacity:1"
      d="m 92.163696,246.72468 v 0 c 0,0 2.348794,-0.2233 3.360674,-0.75166 0.85289,-0.44535 1.44104,-1.76048 2.10249,-1.94338 0.66146,-0.18291 2.10249,-1.69188 2.57496,-1.87479 0.47247,-0.1829 4.016,-1.66902 4.016,-1.66902 0,0 1.70089,-0.45726 2.45684,0 17.59957,0.36339 21.72302,1.95061 33.51022,8.76807 5.92197,3.13831 30.95198,14.62858 34.5559,17.6869 2.19067,1.85902 8.50698,12.61122 11.9675,19.33693 1.03673,2.01493 1.99253,6.55877 3.67038,8.44458 0.62134,0.69835 0.62133,1.82424 0.62133,1.82424 l -61.8362,-0.0282 v 0 l -20.78823,-3.08117 -16.914422,-33.56328 z"
      id="path5377-2"
      inkscape:connector-curvature="0"
      sodipodi:nodetypes="ccasscccssscccccc"/>
    <path
      style="display:inline;fill:#4caf50;fill-opacity:1;fill-rule:evenodd;stroke:none;stroke-width:0.25397095;stroke-linecap:round;stroke-linejoin:round;stroke-miterlimit:4;stroke-dasharray:none;stroke-opacity:1"
      d="m 1.7044267,296.55862 c -2.3252102,-0.0469 -1.739071,-1.28169 -1.297903,-1.87901 1.877089,-1.56631 4.2995974,-3.28768 4.9444864,-4.17326 6.1928549,-8.50417 14.2756259,-13.62309 23.1012099,-22.42469 4.782153,-4.76916 9.860002,-11.12499 14.583794,-16.36201 1.699,-1.45065 2.628508,-1.33629 3.741772,-1.59566 3.328535,-2.71198 5.900234,-5.95208 9.621702,-9.08296 3.391472,-2.85326 3.977042,-4.81884 5.746295,-7.36457 1.266455,-1.82226 3.474506,-5.64616 3.474506,-5.64616 0,0 1.897626,-3.05739 3.4578,-3.68229 0.734967,-0.29437 1.344504,0.35735 2.071338,0.69043 0.930518,0.42643 2.221677,1.02797 2.488946,1.64169 0.267271,0.61371 4.009043,5.03245 4.009043,5.03245 0,0 1.895981,2.34662 3.073601,3.31405 1.482612,1.21799 2.962709,1.91073 4.794147,2.62363 0.796343,0.30998 1.939997,0.5393 2.6894,0.93591 1.038516,0.54963 2.184945,1.50685 2.856444,2.56226 1.53805,2.41739 2.772921,8.11636 2.772921,8.11636 -0.0508,-0.0104 8.400411,20.45135 9.063041,21.43659 0,0 0.90252,1.64638 2.92381,4.92633 0,0 1.21221,1.95886 1.78909,3.1428 4.25037,8.72304 15.35901,16.15508 22.68963,16.7683 2.45422,0.98931 1.82206,1.08093 0.53454,0.98194 z"
      id="path5374-4"
      inkscape:connector-curvature="0"
      sodipodi:nodetypes="ccssccsscssccsssscscsccc"/>
    <g id="bike" style="stroke:#efefef;stroke-opacity:1" transform="translate(-5.9999999,206.9409)">
      <circle r="11.342284" cy="77.966812" cx="135.59065" id="bike-back-wheel"/>
      <path
        sodipodi:nodetypes="ccac"
        inkscape:connector-curvature="0"
        id="path4548-5"
        d="m 146.93293,65.004201 24.3049,-3.240648 c 0,0 -2.21885,0.921696 -3.18279,1.62033 -5.57731,4.042252 -14.6408,14.582936 -14.6408,14.582936"
        style="fill:none;fill-rule:evenodd;stroke:#efefef;stroke-width:1;stroke-linecap:round;stroke-linejoin:round;stroke-miterlimit:4;stroke-dasharray:none;stroke-opacity:1"/>
      <path
        sodipodi:nodetypes="cccsc"
        inkscape:connector-curvature="0"
        id="path4550-4"
        d="m 146.93293,65.004201 -11.34228,12.962618 h 17.82359 c 0,0 -3.91289,-8.766934 -6.02279,-12.986722 -0.0505,-0.101048 -0.45852,0.02413 -0.45852,0.02413 z"
        style="fill:none;fill-rule:evenodd;stroke:#efefef;stroke-width:1;stroke-linecap:round;stroke-linejoin:round;stroke-miterlimit:4;stroke-dasharray:none;stroke-opacity:1"/>
      <path
        sodipodi:nodetypes="cccasc"
        inkscape:connector-curvature="0"
        id="path4552-8"
        d="m 153.41424,77.966819 -9.72196,-21.064245 h 6.4813 c 0,0 -5.69656,-2.42687 -7.87015,-0.92591 -0.26178,0.180782 -0.6606,0.92591 -0.23148,0.92591 h 1.62033"
        style="fill:none;fill-rule:evenodd;stroke:#efefef;stroke-width:1;stroke-linecap:round;stroke-linejoin:round;stroke-miterlimit:4;stroke-dasharray:none;stroke-opacity:1"/>
      <circle
        r="11.342284"
        cy="77.966812"
        cx="176.36501"
        id="path4552-9"
        style="opacity:1;vector-effect:none;fill:none;fill-opacity:1;stroke:#efefef;stroke-width:1;stroke-linecap:round;stroke-linejoin:round;stroke-miterlimit:4;stroke-dasharray:none;stroke-dashoffset:0;stroke-opacity:1;paint-order:normal"/>
      <path
        inkscape:transform-center-y="5.3908419"
        inkscape:transform-center-x="-1.4317681"
        sodipodi:nodetypes="csssccc"
        inkscape:connector-curvature="0"
        id="path4554-8"
        d="m 168.91034,59.267615 c 0,0 2.01494,1.067891 3.09102,0.973347 0.7609,-0.06687 1.80276,-0.330258 2.03218,-1.058814 0.22943,-0.728568 -0.47352,-1.541428 -1.05882,-2.032198 -0.82776,-0.694053 -3.09103,-0.973347 -3.09103,-0.973347 l 1.63099,5.609878 4.85032,16.180338"
        style="fill:none;fill-rule:evenodd;stroke:#efefef;stroke-width:1;stroke-linecap:butt;stroke-linejoin:miter;stroke-miterlimit:4;stroke-dasharray:none;stroke-opacity:1"/>
      <circle id="bike-front-wheel" cx="176.36501" cy="77.966812" r="11.342284"/>
      <circle
        r="11.342284"
        cy="77.966812"
        cx="135.59065"
        id="path4556-6-3"
        style="opacity:1;fill:none;fill-opacity:1;stroke:#efefef;stroke-width:1;stroke-linecap:square;stroke-linejoin:miter;stroke-miterlimit:4;stroke-dasharray:none;stroke-dashoffset:0;stroke-opacity:1;paint-order:normal"/>
    </g>
    <g
      aria-label="POUSADA"
      transform="matrix(0.22434969,0,0,0.22434969,-1.1664158,235.24492)"
      style="font-style:normal;font-variant:normal;font-weight:normal;font-stretch:normal;font-size:40px;line-height:21px;font-family:Roboto;-inkscape-font-specification:'Roboto, weight=250';font-variant-ligatures:normal;font-variant-caps:normal;font-variant-numeric:normal;font-feature-settings:normal;text-align:center;letter-spacing:0px;word-spacing:0px;writing-mode:lr-tb;text-anchor:middle;fill:#ffffff;fill-opacity:1;stroke:none;stroke-width:1px;stroke-linecap:butt;stroke-linejoin:miter;stroke-opacity:1"
      id="flowRoot7317-6">
      <path
        d="m 213.08984,175.81165 q -2.20703,3.75 -10.60547,9.76562 l 2.12891,15.91797 q 0.29297,1.50391 -1.48437,1.50391 l -2.05079,-16.46485 q -0.50781,0.3125 -0.83984,0.27344 -0.625,-0.0391 -0.625,-0.52734 0,-0.3125 1.26953,-1.34766 l -1.875,-14.72656 q 0.39063,-0.23438 0.6836,-0.23438 0.83984,0 1.07421,2.03125 l 1.48438,11.97266 4.35547,-3.49609 q 6.03515,-4.78516 6.03515,-8.35938 0,-2.98828 -4.19921,-4.16016 -0.91797,-0.23437 -2.40235,-0.23437 -1.26953,0 -2.92969,0.23437 -1.66015,0.21485 -3.71093,0.64454 -1.19141,0.3125 -1.3086,-0.9961 4.23828,-1.32812 7.5586,-1.32812 3.24218,0 5.60547,1.21093 3.02734,1.5625 2.94921,4.51172 -0.0781,1.97266 -1.11328,3.8086 z"
        style="font-style:normal;font-variant:normal;font-weight:normal;font-stretch:normal;font-family:Roddy;-inkscape-font-specification:Roddy;fill:#ffffff"
        id="path4535"/>
      <path
        d="m 231.72266,190.57727 q -0.6836,2.63672 -1.44532,4.62891 -0.76172,1.99219 -1.64062,3.39844 -2.75391,4.3164 -6.99219,4.3164 -5.37109,0 -5.37109,-8.82812 0,-6.64063 2.53906,-13.8086 0.99609,-2.7539 2.51953,-5.91797 1.54297,-3.16406 3.63281,-6.79687 l 1.48438,0.3125 q -6.85547,11.89453 -8.28125,21.64062 -0.3711,2.40235 -0.3711,4.19922 0,7.63672 3.88672,7.63672 0.91797,0 2.2461,-0.42969 4.16015,-1.5625 6.46484,-11.21093 0.68359,-2.91016 0.68359,-5.83985 0,-7.07031 -4.35546,-15.50781 l 1.79687,0.35156 q 4.04297,7.89063 4.04297,15.21485 0,3.35937 -0.83984,6.64062 z"
        style="font-style:normal;font-variant:normal;font-weight:normal;font-stretch:normal;font-family:Roddy;-inkscape-font-specification:Roddy;fill:#ffffff"
        id="path4537"/>
      <path
        d="m 256.52734,184.4054 q -1.05468,6.52343 -3.84765,11.11328 -3.55469,5.80078 -8.8086,7.05078 -0.8789,0.19531 -1.42578,0.19531 -3.00781,0 -4.72656,-3.28125 -2.16797,-3.82812 -2.87109,-29.39453 1.34765,-0.11719 1.38671,0.99609 l 0.80079,14.6875 q 0.48828,8.63282 1.60156,11.875 0.83984,2.40235 2.24609,3.24219 0.42969,0.27344 1.19141,0.27344 1.13281,0 2.92969,-0.68359 3.32031,-1.26954 5.76171,-4.82422 1.46485,-2.16797 3.35938,-6.89453 1.91406,-4.98047 1.83594,-20.78125 0,-1.40625 1.26953,-1.85547 0.0391,1.25 0.0586,2.26562 0.0391,1.01563 0.0391,1.89453 0,4.80469 -0.21484,8.32032 -0.19531,3.49609 -0.58594,5.80078 z"
        style="font-style:normal;font-variant:normal;font-weight:normal;font-stretch:normal;font-family:Roddy;-inkscape-font-specification:Roddy;fill:#ffffff"
        id="path4539"/>
      <path
        d="m 264.73047,202.96008 q -0.0977,-1.52343 0.99609,-1.67968 7.75391,-1.19141 10.03906,-4.58985 0.60547,-0.95703 0.60547,-1.79687 0,-2.08985 -3.88672,-3.8086 l -8.35937,-3.71093 q -2.44141,-1.09375 -3.4375,-2.05078 -1.60156,-1.34766 -1.60156,-3.51563 0,-4.92187 5.3125,-9.51172 3.82812,-3.57422 9.66797,-6.15234 1.1914,0.91797 -0.44922,1.89453 l -3.51563,1.99219 q -8.94531,5.48828 -9.375,11.5039 -0.11719,1.99219 1.95313,3.35938 0.83984,0.54687 4.08203,1.91406 5.76172,2.48047 6.44531,2.79297 4.76563,2.59766 4.76563,5.37109 0,5.72266 -13.24219,7.98828 z"
        style="font-style:normal;font-variant:normal;font-weight:normal;font-stretch:normal;font-family:Roddy;-inkscape-font-specification:Roddy;fill:#ffffff"
        id="path4541"/>
      <path
        d="m 300.78516,202.88196 q -0.70313,0.0391 -0.9375,-0.625 L 296.625,186.88587 q -2.98828,-2.20704 -8.10547,-2.63672 L 281.625,201.8468 q -0.42969,1.15235 -1.19141,1.15235 -0.23437,0 -0.80078,-0.3125 l 7.07031,-18.39844 q -0.91796,0.0781 -2.05078,0.37109 -1.13281,0.27344 -2.5,0.78125 l -0.68359,-1.23047 q 2.40234,-1.25 5.83984,-1.5625 1.36719,-4.47265 2.32422,-7.53906 0.95703,-3.0664 1.60156,-4.74609 1.60157,-4.35547 2.40235,-4.19922 1.1914,4.12109 3.14453,13.24219 1.97266,9.12109 4.76562,23.20312 -0.46875,0.27344 -0.76171,0.27344 z m -7.71485,-33.35938 -4.0039,13.16407 q 2.32421,0.15625 4.08203,0.60547 1.75781,0.42968 3.00781,1.11328 z"
        style="font-style:normal;font-variant:normal;font-weight:normal;font-stretch:normal;font-family:Roddy;-inkscape-font-specification:Roddy;fill:#ffffff"
        id="path4543"/>
      <path
        d="m 329.10547,180.77258 q -2.48047,4.60938 -8.24219,11.42579 -8.30078,10.2539 -9.39453,11.5039 l -1.19141,-1.21094 q 9.33594,-11.07421 10.50782,-12.51953 7.67578,-9.64843 8.33984,-13.76953 0.3125,-1.91406 0,-2.91015 -0.3125,-0.9961 -1.54297,-2.16797 -2.40234,-1.95313 -5.76172,-2.63672 -3.20312,-0.6836 -6.95312,-0.72266 -3.125,0.17578 -5.03907,0.54688 0.46875,3.45703 0.70313,6.32812 0.25391,2.85156 0.3125,6.21094 0,10.58594 -0.0977,19.57031 0,1.58203 -1.58203,1.48438 l 0.0586,-22.46094 q 0,-5.19531 -0.9375,-10.82031 -0.91797,0.21484 -1.81641,0.48828 -0.89844,0.2539 -1.54297,0.33203 -1.07422,0.19531 -1.30859,-0.95703 0.60547,-0.27344 1.85547,-0.625 1.26953,-0.3711 3.18359,-0.85938 2.85156,-0.68359 6.5625,-0.80078 8.88672,0.11719 12.92969,3.39844 1.46484,1.17187 1.99218,2.05078 0.6836,1.11328 0.74219,2.67578 -0.0586,2.63672 -1.77734,6.44531 z"
        style="font-style:normal;font-variant:normal;font-weight:normal;font-stretch:normal;font-family:Roddy;-inkscape-font-specification:Roddy;fill:#ffffff"
        id="path4545"/>
      <path
        d="m 353.59766,202.88196 q -0.70313,0.0391 -0.9375,-0.625 l -3.22266,-15.37109 q -2.98828,-2.20704 -8.10547,-2.63672 l -6.89453,17.59765 q -0.42969,1.15235 -1.19141,1.15235 -0.23437,0 -0.80078,-0.3125 l 7.07031,-18.39844 q -0.91796,0.0781 -2.05078,0.37109 -1.13281,0.27344 -2.5,0.78125 l -0.68359,-1.23047 q 2.40234,-1.25 5.83984,-1.5625 1.36719,-4.47265 2.32422,-7.53906 0.95703,-3.0664 1.60156,-4.74609 1.60157,-4.35547 2.40235,-4.19922 1.1914,4.12109 3.14453,13.24219 1.97266,9.12109 4.76562,23.20312 -0.46875,0.27344 -0.76171,0.27344 z m -7.71485,-33.35938 -4.0039,13.16407 q 2.32421,0.15625 4.08203,0.60547 1.75781,0.42968 3.00781,1.11328 z"
        style="font-style:normal;font-variant:normal;font-weight:normal;font-stretch:normal;font-family:Roddy;-inkscape-font-specification:Roddy;fill:#ffffff"
        id="path4547"/>
    </g>
    <g
      aria-label="CAMINHO DOS VENTOS"
      transform="matrix(0.28196032,0,0,0.28196032,-26.778061,224.88612)"
      style="font-style:normal;font-variant:normal;font-weight:normal;font-stretch:normal;font-size:40px;line-height:21px;font-family:Roboto;-inkscape-font-specification:'Roboto, weight=250';font-variant-ligatures:normal;font-variant-caps:normal;font-variant-numeric:normal;font-feature-settings:normal;text-align:center;letter-spacing:0px;word-spacing:0px;writing-mode:lr-tb;text-anchor:middle;fill:#000000;fill-opacity:1;stroke:none;stroke-width:1px;stroke-linecap:butt;stroke-linejoin:miter;stroke-opacity:1"
      id="flowRoot7325-1">
      <path
        d="m 147.84668,239.41516 q -1.09375,0.97657 -2.44141,1.81641 -1.32812,0.82031 -2.91015,1.5625 -1.6211,0.72266 -3.26172,1.11328 -1.64063,0.39063 -3.35938,0.42969 -3.90625,0 -5.13672,-2.98828 -0.83984,-2.05078 -0.83984,-5.76172 0,-5.21485 1.62109,-13.14453 1.13282,-5.44922 2.63672,-8.96485 1.52344,-3.51562 3.4375,-5.23437 0.44922,-0.25391 0.72266,-0.25391 0.15625,0 0.33203,0.0781 0.17578,0.0586 0.29297,0.21484 0.11719,0.15625 0.19531,0.35156 0.0781,0.17578 0.0781,0.39063 0,0.54687 -0.50782,1.13281 -1.46484,1.71875 -2.7539,5.17578 -1.26953,3.45703 -2.38281,8.71094 -1.32813,6.17187 -1.32813,10.87891 0,0.91796 0.0586,1.77734 0.0586,0.83984 0.13672,1.60156 0,0.0586 0,0.11719 0.0195,0.0586 0.0195,0.0977 0.11719,1.07421 0.44922,1.8164 0.35157,0.74219 0.91797,1.19141 0.39063,0.27344 0.97656,0.42969 0.58594,0.15625 1.32813,0.15625 h 0.17578 q 2.03125,0 4.43359,-0.9375 2.40235,-0.9375 5.25391,-2.8711 v 0.0195 q 0.87891,-0.60547 1.40625,-0.60547 0.13672,0 0.23438,0.0391 0.11718,0.0391 0.21484,0.0781 0.44922,0.23438 0.44922,0.6836 0,0.21484 -0.11719,0.41015 -0.0977,0.19531 -0.29297,0.44922 z"
        style="font-style:normal;font-variant:normal;font-weight:bold;font-stretch:normal;font-family:Roddy;-inkscape-font-specification:'Roddy Bold';fill:#ffffff"
        id="path4550"/>
      <path
        d="m 159.44824,223.92688 q 1.83594,0.15625 3.28125,0.48828 1.44531,0.33203 2.5586,0.82032 l -2.51954,-12.22657 z m 10.83985,20.3711 q -0.87891,0 -1.23047,-0.89844 l -3.125,-14.84375 q -2.65625,-1.89453 -7.26563,-2.34375 l -6.60156,16.8164 q -0.50781,1.38672 -1.52344,1.38672 -0.15625,0 -0.41015,-0.0976 -0.23438,-0.0781 -0.54688,-0.27344 -0.27344,-0.17578 -0.17578,-0.44922 l 6.64062,-17.32422 q -0.78125,0.11719 -1.69921,0.3711 -0.89844,0.2539 -1.99219,0.66406 -0.29297,0.0976 -0.46875,-0.17578 l -0.66406,-1.19141 q -0.0586,-0.15625 -0.0391,-0.29297 0.0391,-0.15625 0.19532,-0.23437 2.30468,-1.19141 5.5664,-1.54297 1.3086,-4.27735 2.20703,-7.16797 0.91797,-2.91016 1.54297,-4.55078 1.5625,-4.33594 2.63672,-4.33594 h 0.0586 q 0.11719,0 0.21485,0.0781 0.11719,0.0781 0.13672,0.17578 1.1914,4.08203 3.10547,12.96875 1.91406,8.88672 4.60937,22.53906 0.0195,0.0977 -0.0391,0.21484 -0.0391,0.11719 -0.13672,0.17578 -0.56641,0.33204 -0.9375,0.33204 z"
        style="font-style:normal;font-variant:normal;font-weight:bold;font-stretch:normal;font-family:Roddy;-inkscape-font-specification:'Roddy Bold';fill:#ffffff"
        id="path4552"/>
      <path
        d="m 174.62402,228.00891 q 0.39063,-4.51172 0.64453,-8.41797 0.25391,-3.90625 0.3125,-7.36328 0,-0.21484 0.17579,-0.3125 0.19531,-0.11718 0.41015,0 1.71875,0.95703 2.22656,1.5625 0.48829,0.58594 0.82032,1.15235 0.33203,0.5664 0.54687,1.09375 0.44922,1.15234 0.76172,2.5 0.33203,1.34765 0.625,2.91015 0.27344,1.97266 0.82031,4.86328 0.54688,2.8711 1.3086,6.64063 1.1914,-2.65625 3.04687,-8.33984 0.87891,-2.69532 1.58203,-4.80469 0.70313,-2.10938 1.23047,-3.69141 0.52735,-1.58203 1.01563,-2.91015 0.48828,-1.34766 0.9375,-2.46094 1.17187,-2.8125 2.26562,-2.8125 0.41016,0 0.74219,0.23437 1.52344,0.82032 1.52344,5.76172 v 0.74219 q 0,0.80078 -0.0391,2.48047 -0.0391,1.66015 -0.11718,4.25781 -0.0781,2.57813 -0.13672,4.98047 -0.0586,2.38281 -0.0977,4.66797 -0.0195,0.68359 -0.0195,1.32812 0,0.64453 0,1.26953 0,1.46485 0.0195,2.73438 0.0391,1.25 0.11719,2.36328 0.0977,1.58203 0.27344,3.41797 0.17578,1.81641 0.44922,3.94531 0.0195,0.13672 -0.0781,0.25391 -0.0781,0.13672 -0.21484,0.17578 -0.29297,0.0586 -0.60547,0.0586 -1.26953,0 -1.67969,-1.52343 -0.27344,-2.12891 -0.44922,-5.19532 -0.15625,-3.08593 -0.23437,-7.14843 0.0977,-2.30469 0.15625,-4.31641 0.0781,-2.03125 0.11718,-3.80859 0.0391,-1.77735 0.0781,-3.84766 0.0391,-2.08984 0.0586,-4.55078 0.11719,-1.9336 0.11719,-3.24219 0,-0.9375 -0.0586,-1.52344 -0.13672,0.29297 -0.27344,0.625 -0.11719,0.3125 -0.27344,0.70313 -0.3125,0.76172 -0.68359,1.83594 -0.3711,1.07421 -0.78125,2.48046 -0.21485,0.60547 -0.42969,1.3086 -0.21484,0.68359 -0.48828,1.5039 -0.35156,1.09375 -0.80078,2.46094 -0.42969,1.36719 -0.9961,3.04688 -0.5664,1.67968 -1.30859,3.73047 -0.72266,2.03125 -1.66016,4.47265 -1.83593,3.96485 -2.8125,3.96485 -0.625,0 -0.85937,-0.60547 l 0.0195,0.0391 q -1.01562,-2.07031 -2.10937,-9.14063 -0.56641,-3.57421 -0.95704,-5.82031 -0.39062,-2.26562 -0.66406,-3.26172 -0.13672,-0.50781 -0.27344,-0.91797 -0.13671,-0.42968 -0.27343,-0.78125 -0.0781,1.83594 -0.21485,4.25782 -0.13672,2.40234 -0.35156,5.39062 -0.23437,3.59375 -0.66406,7.75391 -0.41016,4.14062 -1.03516,8.88672 -0.0586,1.15234 -1.34765,1.15234 -0.19532,0 -0.39063,-0.0195 -0.19531,-0.0195 -0.39062,-0.0586 -0.15625,-0.0391 -0.25391,-0.15625 -0.0781,-0.11719 -0.0586,-0.27344 0.23437,-2.14844 0.42968,-4.0625 0.21485,-1.9336 0.41016,-3.67188 0.27344,-2.34375 0.46875,-4.3164 0.21484,-1.97266 0.37109,-3.65235 z"
        style="font-style:normal;font-variant:normal;font-weight:bold;font-stretch:normal;font-family:Roddy;-inkscape-font-specification:'Roddy Bold';fill:#ffffff"
        id="path4554"/>
      <path
        d="m 201.12793,209.45423 -0.33203,10.27343 q -0.0391,1.44532 -0.13672,3.4375 -0.0781,1.99219 -0.23438,4.57032 -0.23437,3.61328 -0.41015,7.67578 -0.15625,4.04297 -0.23438,8.78906 0,0.15625 -0.11718,0.27344 -0.11719,0.11718 -0.27344,0.0976 -1.50391,-0.0781 -1.64063,-1.40625 -0.0977,-0.68359 -0.13672,-1.54297 -0.0195,-0.85937 -0.0195,-1.875 0,-1.99218 0.11719,-4.55078 l 1.32813,-27.28515 q 0,-0.21485 0.13671,-0.3125 0.15625,-0.11719 0.35157,-0.0391 1.60156,0.56641 1.60156,1.60157 z"
        style="font-style:normal;font-variant:normal;font-weight:bold;font-stretch:normal;font-family:Roddy;-inkscape-font-specification:'Roddy Bold';fill:#ffffff"
        id="path4556"/>
      <path
        d="m 223.49121,212.75501 -0.52734,16.83593 v -0.0195 q -0.27344,11.9336 -0.97657,13.94532 -0.42968,0.72265 -0.97656,0.76171 h -0.0586 q -1.07422,0 -2.46094,-2.55859 v 0.0195 l -7.38281,-13.53515 h 0.0195 q -1.38672,-2.51954 -2.42188,-4.35547 -1.03515,-1.85547 -1.75781,-3.08594 -0.54687,-0.9375 -1.13281,-1.89453 -0.56641,-0.97656 -1.19141,-2.03125 l 1.97266,27.28515 v -0.0391 q 0.0195,0.0977 0.0195,0.19531 0,0.0977 0,0.17579 0,1.52343 -1.77734,1.52343 h -0.19532 q -0.15625,0 -0.2539,-0.0976 -0.0977,-0.0977 -0.11719,-0.25391 -0.9375,-13.20312 -1.40625,-21.21094 -0.48828,-7.96875 -0.58594,-10.15625 0.11719,-1.73828 1.07422,-1.73828 1.09375,0 2.44141,1.69922 1.93359,3.02734 3.88672,6.38672 1.95312,3.33984 3.94531,7.01172 h -0.0195 q 1.52344,2.67578 2.63672,4.74609 1.11328,2.05078 1.85547,3.51563 0.54687,1.09375 1.05468,2.05078 0.52735,0.9375 1.03516,1.77734 0.11719,-1.75781 0.21484,-4.17969 0.0977,-2.4414 0.13672,-5.60546 0.0781,-3.73047 0.27344,-8.67188 0.19531,-4.96094 0.52734,-11.25 0.13672,-1.85547 1.91407,-1.85547 h 0.13671 q 0.17579,0 0.29297,0.11719 0.11719,0.11719 0.0977,0.29297 z"
        style="font-style:normal;font-variant:normal;font-weight:bold;font-stretch:normal;font-family:Roddy;-inkscape-font-specification:'Roddy Bold';fill:#ffffff"
        id="path4558"/>
      <path
        d="m 244.35059,242.54016 q -0.19532,-3.39843 -0.3711,-7.69531 -0.15625,-4.31641 -0.29297,-9.64844 -0.80078,0.0391 -1.97265,0.19532 -1.17188,0.15625 -2.75391,0.41015 h 0.0195 q -4.375,0.82031 -9.6289,2.98828 -0.0781,3.86719 -0.25391,7.53907 -0.17578,3.65234 -0.44922,7.10937 -0.21484,1.05469 -1.42578,1.05469 -0.29297,0 -0.58594,-0.0586 -0.13672,-0.0195 -0.21484,-0.13671 -0.0781,-0.11719 -0.0781,-0.25391 l 0.70313,-14.16016 q -0.44922,0.21485 -0.80078,0.21485 -0.9961,0 -0.9961,-0.97657 0,-0.85937 1.875,-1.79687 0.0195,-1.07422 0.0195,-2.14844 0,-1.07422 0,-2.1875 0,-3.00781 -0.0586,-5.99609 -0.0586,-3.00781 -0.19531,-6.11328 0,-0.15625 0.0977,-0.27344 0.11719,-0.11719 0.27344,-0.11719 h 0.0781 q 0.89843,0 1.32812,0.3711 0.44922,0.37109 0.50781,1.11328 0.23438,3.98437 0.23438,10.39062 0,0.9375 0,1.91406 0,0.95704 -0.0195,1.99219 6.1914,-2.79297 14.16015,-3.47656 -0.11718,-2.91016 -0.17578,-5.72266 -0.0391,-2.8125 -0.0391,-5.50781 v -1.21094 q 0,-2.5 1.875,-2.5 0.15625,0 0.25391,0.11719 0.11718,0.0977 0.11718,0.25391 l 0.19532,11.13281 q 0,0.0586 0,0.11719 0.0195,0.0586 0.0195,0.0976 0.0391,0.89844 0.0977,2.48047 0.0781,1.58203 0.15625,4.02344 l 0.58594,17.20703 q 0,0.15625 -0.11719,0.29297 -0.11718,0.11719 -0.27343,0.11719 h -0.23438 q -1.46484,0 -1.66015,-1.09375 z"
        style="font-style:normal;font-variant:normal;font-weight:bold;font-stretch:normal;font-family:Roddy;-inkscape-font-specification:'Roddy Bold';fill:#ffffff"
        id="path4560"/>
      <path
        d="m 262.6123,225.43079 q 0,-6.75781 -4.14062,-14.78516 -3.16406,5.60547 -5.07813,10.64453 -1.91406,5.03907 -2.57812,9.6875 -0.19531,1.17188 -0.29297,2.1875 -0.0781,0.9961 -0.0781,1.83594 0,7.05078 3.39843,7.05078 0.85938,0 2.07032,-0.41015 h -0.0195 q 3.86719,-1.42579 6.07422,-10.625 0.3125,-1.38672 0.46875,-2.77344 0.17578,-1.38672 0.17578,-2.8125 z m 1.36719,6.60156 q -0.68359,2.61719 -1.42578,4.57031 -0.74219,1.95313 -1.62109,3.35938 -2.79297,4.375 -7.12891,4.375 -5.60547,0 -5.60547,-8.98438 0,-3.28125 0.60547,-6.64062 0.625,-3.37891 1.89453,-6.91406 0.97656,-2.67579 2.46094,-5.74219 1.48437,-3.08594 3.55469,-6.67969 0.0586,-0.0977 0.17578,-0.15625 0.13672,-0.0781 0.23437,-0.0391 l 1.44532,0.29297 q 0.15625,0.0391 0.23437,0.19531 0.0781,0.13672 0.0391,0.29297 l 1.73828,0.33203 q 0.0586,0.0195 0.13672,0.0977 0.0781,0.0586 0.11719,0.11718 3.98438,7.73438 3.98438,14.98047 0,3.30078 -0.83985,6.54297 z"
        style="font-style:normal;font-variant:normal;font-weight:bold;font-stretch:normal;font-family:Roddy;-inkscape-font-specification:'Roddy Bold';fill:#ffffff"
        id="path4562"/>
      <path
        d="m 289.11621,241.52454 q 0,0.11719 -0.0195,0.2539 0,0.11719 -0.0195,0.23438 4.02344,-4.78516 6.30859,-7.51953 2.28516,-2.73438 2.83203,-3.37891 h -0.0195 q 7.38281,-9.27734 8.02735,-13.22265 0.0781,-0.44922 0.11718,-0.83985 0.0391,-0.39062 0.0391,-0.72265 0,-0.33204 -0.0391,-0.60547 -0.0391,-0.27344 -0.0976,-0.48828 -0.29297,-0.89844 -1.40625,-1.95313 l 0.0195,0.0195 q -2.2461,-1.8164 -5.42969,-2.48047 -1.58203,-0.33203 -3.24219,-0.50781 -1.66015,-0.17578 -3.4375,-0.19531 -1.34765,0.0976 -2.48047,0.21484 -1.11328,0.11719 -2.01171,0.27344 0.21484,1.58203 0.37109,3.02734 0.15625,1.44532 0.27344,2.77344 0.13672,1.38672 0.19531,2.91016 0.0781,1.5039 0.11719,3.16406 0,5.17578 -0.0391,9.90234 -0.0195,4.72657 -0.0586,9.14063 z m 17.8125,-18.92578 q -1.21094,2.22656 -3.22266,5 -1.99218,2.77343 -4.84375,6.17187 h 0.0195 q -4.04297,4.98047 -6.34766,7.79297 -2.28516,2.79297 -2.8125,3.39844 -0.11719,0.11719 -0.29297,0.11719 -0.15625,0.0195 -0.25391,-0.0977 l -1.17187,-1.19141 q -0.0977,-0.0976 -0.11719,-0.23437 0,-0.15625 0.0977,-0.27344 l 0.0195,-0.0195 q -0.23438,0.0781 -0.66406,0.0781 h -0.15625 q -0.15625,0 -0.27344,-0.0976 -0.0977,-0.11719 -0.0977,-0.27344 l 0.0586,-21.85547 q 0,-2.42187 -0.21485,-4.92187 -0.21484,-2.5 -0.64453,-5.13672 -0.21484,0.0586 -0.44922,0.11719 -0.23437,0.0586 -0.44922,0.11718 -0.5664,0.17578 -1.07421,0.3125 -0.50782,0.11719 -0.89844,0.15625 -0.0781,0.0195 -0.15625,0.0391 -0.0781,0 -0.19531,0 -1.13282,0 -1.36719,-1.26954 -0.0391,-0.11718 0.0391,-0.23437 0.0781,-0.13672 0.17578,-0.17578 0.60547,-0.29297 1.83594,-0.64453 1.23047,-0.35157 3.125,-0.82032 1.44531,-0.35156 3.02734,-0.54687 1.60157,-0.19531 3.4375,-0.25391 8.82813,0.11719 12.85157,3.37891 h -0.0195 q 1.48438,1.19141 2.03125,2.10937 0.35157,0.58594 0.54688,1.28907 0.19531,0.68359 0.23437,1.5039 -0.0586,2.63672 -1.77734,6.42578 z"
        style="font-style:normal;font-variant:normal;font-weight:bold;font-stretch:normal;font-family:Roddy;-inkscape-font-specification:'Roddy Bold';fill:#ffffff"
        id="path4564"/>
      <path
        d="m 324.25293,225.43079 q 0,-6.75781 -4.14063,-14.78516 -3.16406,5.60547 -5.07812,10.64453 -1.91406,5.03907 -2.57813,9.6875 -0.19531,1.17188 -0.29296,2.1875 -0.0781,0.9961 -0.0781,1.83594 0,7.05078 3.39844,7.05078 0.85937,0 2.07031,-0.41015 h -0.0195 q 3.86719,-1.42579 6.07422,-10.625 0.3125,-1.38672 0.46875,-2.77344 0.17578,-1.38672 0.17578,-2.8125 z m 1.36719,6.60156 q -0.6836,2.61719 -1.42578,4.57031 -0.74219,1.95313 -1.6211,3.35938 -2.79297,4.375 -7.1289,4.375 -5.60547,0 -5.60547,-8.98438 0,-3.28125 0.60547,-6.64062 0.625,-3.37891 1.89453,-6.91406 0.97656,-2.67579 2.46093,-5.74219 1.48438,-3.08594 3.55469,-6.67969 0.0586,-0.0977 0.17578,-0.15625 0.13672,-0.0781 0.23438,-0.0391 l 1.44531,0.29297 q 0.15625,0.0391 0.23438,0.19531 0.0781,0.13672 0.0391,0.29297 l 1.73828,0.33203 q 0.0586,0.0195 0.13672,0.0977 0.0781,0.0586 0.11719,0.11718 3.98437,7.73438 3.98437,14.98047 0,3.30078 -0.83984,6.54297 z"
        style="font-style:normal;font-variant:normal;font-weight:bold;font-stretch:normal;font-family:Roddy;-inkscape-font-specification:'Roddy Bold';fill:#ffffff"
        id="path4566"/>
      <path
        d="m 333.00293,243.77063 q 0,-1.58203 1.28906,-1.79687 7.38281,-1.13282 9.51172,-4.29688 0.52734,-0.83984 0.52734,-1.54297 0,-1.75781 -3.55468,-3.35937 l -8.125,-3.61328 q -2.40235,-1.03516 -3.4375,-2.05078 -1.69922,-1.38672 -1.69922,-3.69141 0,-4.96094 5.29297,-9.55078 h -0.0195 q 3.78906,-3.53516 9.53125,-6.03516 0.0781,-0.0391 0.17578,-0.0195 0.11718,0.0195 0.19531,0.0586 0.64453,0.46875 0.64453,1.05469 0,0.76172 -1.11328,1.40625 l -3.41797,1.9336 q -8.51562,5.23437 -8.92578,10.89843 v 0.19532 q 0,1.60156 1.71875,2.73437 0.42969,0.27344 1.40625,0.72266 0.97656,0.44922 2.51953,1.11328 0.72266,0.3125 1.36719,0.60547 0.64453,0.27343 1.21094,0.50781 1.60156,0.68359 2.51953,1.09375 0.9375,0.39062 1.1914,0.50781 4.84375,2.67578 4.84375,5.56641 0,5.89844 -13.20312,8.16406 -0.19531,0.0391 -0.33203,-0.0781 -0.11719,-0.11719 -0.11719,-0.3125 z"
        style="font-style:normal;font-variant:normal;font-weight:bold;font-stretch:normal;font-family:Roddy;-inkscape-font-specification:'Roddy Bold';fill:#ffffff"
        id="path4568"/>
      <path
        d="m 383.82324,209.3761 q -10.09765,34.12109 -11.99219,35.21484 -0.15625,0.0977 -0.3125,0.0391 -0.13671,-0.0586 -0.21484,-0.21485 -0.23437,-0.48828 -0.64453,-1.85547 -0.39063,-1.36718 -0.97656,-3.65234 -0.56641,-2.26562 -1.19141,-4.94141 -0.625,-2.67578 -1.28906,-5.80078 l 0.0195,0.0195 q -1.52344,-5.91796 -2.55859,-9.60937 -1.03516,-3.69141 -1.64063,-5.23438 -0.0781,-0.15625 -0.0781,-0.37109 0,-0.27344 0.15625,-0.42969 0.15625,-0.17578 0.48828,-0.21484 l -0.0391,0.0195 q 0.0977,-0.0391 0.15625,-0.0391 0.0781,0 0.15625,0 0.46875,0 0.74219,0.2539 1.79688,1.32813 7.5,26.54297 0.21485,-0.70312 0.48828,-1.5039 0.27344,-0.82032 0.58594,-1.75782 0.625,-1.89453 1.38672,-4.17968 0.76172,-2.30469 1.60156,-5.09766 1.19141,-3.96484 2.14844,-7.07031 0.97656,-3.10547 1.71875,-5.41016 0.76172,-2.30469 1.21094,-3.61328 0.46875,-1.32812 0.64453,-1.73828 0.37109,-0.85938 1.15234,-1.07422 h 0.0586 q 0.85937,0 0.85937,0.97656 0,0.42969 -0.13672,0.76172 z"
        style="font-style:normal;font-variant:normal;font-weight:bold;font-stretch:normal;font-family:Roddy;-inkscape-font-specification:'Roddy Bold';fill:#ffffff"
        id="path4570"/>
      <path
        d="m 408.62793,237.01282 q 0.97656,0 1.36719,1.05469 0.21484,0.13672 0.0781,0.44922 l -0.0195,0.0391 q -0.11719,0.19531 -0.33203,0.23437 -1.11328,0.56641 -3.4375,1.38672 -2.32422,0.80078 -5.87891,1.89453 -3.67187,1.11328 -6.93359,1.73828 -3.26172,0.60547 -6.17188,0.74219 -0.15625,0.0195 -0.27343,-0.0781 -0.0977,-0.0977 -0.11719,-0.25391 -0.3125,-3.92578 -0.52734,-7.61719 -0.21485,-3.6914 -0.42969,-7.38281 -0.0195,-0.29297 -0.0391,-0.60547 0,-0.3125 0,-0.60547 l -0.11719,-2.24609 -0.50781,-15.42969 q 0,-0.11719 0.0781,-0.21484 0.0781,-0.11719 0.19531,-0.15625 2.73438,-0.89844 6.5625,-1.46485 3.84766,-0.58593 8.88672,-0.89843 0.74219,0.48828 0.74219,0.95703 0,0.0781 -0.0195,0.17578 -0.0195,0.0781 -0.0977,0.23437 -0.3125,0.72266 -2.14844,1.01563 -3.75,0.50781 -6.07421,0.85937 -2.32422,0.33204 -3.32032,0.54688 -0.83984,0.17578 -1.44531,0.3125 -0.60547,0.13672 -0.97656,0.23437 v 0.50782 q 0,3.65234 0.0976,7.16797 0.11719,3.49609 0.3711,7.1289 3.6914,-1.17187 6.36719,-1.95312 2.69531,-0.78125 4.49218,-1.21094 0.25391,-0.0781 0.48828,-0.0781 0.56641,0 0.78125,0.35157 0.21485,0.33203 0.25391,0.74218 -0.0586,0.6836 -0.91797,1.09375 -0.83984,0.41016 -2.57812,0.87891 -1.66016,0.44922 -3.78907,1.09375 -2.1289,0.625 -4.86328,1.50391 0.27344,5.44922 0.48828,8.67187 0.21485,3.20313 0.35157,4.21875 2.98828,-0.41015 5.8789,-1.07422 2.91016,-0.66406 5.83985,-1.64062 3.125,-0.9961 5.01953,-1.58203 1.89453,-0.58594 2.59765,-0.74219 z"
        style="font-style:normal;font-variant:normal;font-weight:bold;font-stretch:normal;font-family:Roddy;-inkscape-font-specification:'Roddy Bold';fill:#ffffff"
        id="path4572"/>
      <path
        d="m 432.70996,212.75501 -0.52734,16.83593 v -0.0195 q -0.27344,11.9336 -0.97657,13.94532 -0.42968,0.72265 -0.97656,0.76171 h -0.0586 q -1.07422,0 -2.46094,-2.55859 v 0.0195 l -7.38281,-13.53515 h 0.0195 q -1.38672,-2.51954 -2.42188,-4.35547 -1.03515,-1.85547 -1.75781,-3.08594 -0.54687,-0.9375 -1.13281,-1.89453 -0.56641,-0.97656 -1.19141,-2.03125 l 1.97266,27.28515 v -0.0391 q 0.0195,0.0977 0.0195,0.19531 0,0.0977 0,0.17579 0,1.52343 -1.77734,1.52343 h -0.19532 q -0.15625,0 -0.2539,-0.0976 -0.0977,-0.0977 -0.11719,-0.25391 -0.9375,-13.20312 -1.40625,-21.21094 -0.48828,-7.96875 -0.58594,-10.15625 0.11719,-1.73828 1.07422,-1.73828 1.09375,0 2.44141,1.69922 1.93359,3.02734 3.88672,6.38672 1.95312,3.33984 3.94531,7.01172 h -0.0195 q 1.52344,2.67578 2.63672,4.74609 1.11328,2.05078 1.85547,3.51563 0.54687,1.09375 1.05468,2.05078 0.52735,0.9375 1.03516,1.77734 0.11719,-1.75781 0.21484,-4.17969 0.0977,-2.4414 0.13672,-5.60546 0.0781,-3.73047 0.27344,-8.67188 0.19531,-4.96094 0.52734,-11.25 0.13672,-1.85547 1.91407,-1.85547 h 0.13671 q 0.17579,0 0.29297,0.11719 0.11719,0.11719 0.0977,0.29297 z"
        style="font-style:normal;font-variant:normal;font-weight:bold;font-stretch:normal;font-family:Roddy;-inkscape-font-specification:'Roddy Bold';fill:#ffffff"
        id="path4574"/>
      <path
        d="m 434.97559,218.55579 q -0.3711,0 -0.64454,-0.27344 -0.2539,-0.29297 -0.2539,-0.74219 0,-0.19531 0.0391,-0.39062 0.0586,-0.19531 0.15625,-0.41016 0.0977,-0.17578 0.33203,-0.37109 0.23438,-0.21485 0.6836,-0.48828 0.44921,-0.29297 1.13281,-0.64453 0.70312,-0.3711 1.69922,-0.83985 h -0.0195 q 1.97265,-0.9375 4.17968,-1.79687 2.22657,-0.85938 4.78516,-1.77735 2.57812,-0.9375 4.23828,-1.48437 1.67969,-0.54688 2.5,-0.78125 0.83984,-0.27344 1.40625,-0.39063 0.56641,-0.11718 0.85938,-0.11718 0.82031,0 1.09375,1.13281 v 0.0195 q 0,0.82031 -1.91407,1.34766 h 0.0195 q -2.4414,0.82031 -4.51171,1.54296 -2.07032,0.70313 -3.82813,1.32813 h 0.0195 q 0.0977,4.92187 0.25391,8.98437 0.17578,4.0625 0.39062,7.28516 0.23438,3.20313 0.46875,6.46484 0.23438,3.24219 0.44922,6.69922 v 0.19532 q 0,1.62109 -1.64062,1.62109 h -0.19532 q -0.15625,0 -0.27343,-0.11719 -0.0977,-0.0977 -0.11719,-0.23437 -0.0781,-1.05469 -0.13672,-2.08985 -0.0391,-1.05468 -0.11719,-2.10937 -0.0391,-0.70313 -0.0976,-1.40625 -0.0586,-0.70313 -0.0977,-1.38672 -0.15625,-2.1875 -0.29297,-4.33594 -0.0586,-1.17187 -0.13672,-2.34375 -0.0781,-1.17187 -0.17578,-2.34375 -0.19531,-2.85156 -0.29297,-5.33203 -0.0781,-2.5 -0.0781,-4.72656 0,-1.81641 0.0586,-3.37891 0,-0.48828 0.0781,-0.74219 -1.34766,0.50782 -2.42188,0.9375 -1.07422,0.42969 -1.93359,0.82032 -2.12891,0.95703 -3.4375,1.58203 -1.28906,0.625 -1.97266,0.99609 z"
        style="font-style:normal;font-variant:normal;font-weight:bold;font-stretch:normal;font-family:Roddy;-inkscape-font-specification:'Roddy Bold';fill:#ffffff"
        id="path4576"/>
      <path
        d="m 468.94043,225.43079 q 0,-6.75781 -4.14063,-14.78516 -3.16406,5.60547 -5.07812,10.64453 -1.91406,5.03907 -2.57813,9.6875 -0.19531,1.17188 -0.29296,2.1875 -0.0781,0.9961 -0.0781,1.83594 0,7.05078 3.39844,7.05078 0.85937,0 2.07031,-0.41015 h -0.0195 q 3.86719,-1.42579 6.07422,-10.625 0.3125,-1.38672 0.46875,-2.77344 0.17578,-1.38672 0.17578,-2.8125 z m 1.36719,6.60156 q -0.6836,2.61719 -1.42578,4.57031 -0.74219,1.95313 -1.6211,3.35938 -2.79297,4.375 -7.1289,4.375 -5.60547,0 -5.60547,-8.98438 0,-3.28125 0.60547,-6.64062 0.625,-3.37891 1.89453,-6.91406 0.97656,-2.67579 2.46093,-5.74219 1.48438,-3.08594 3.55469,-6.67969 0.0586,-0.0977 0.17578,-0.15625 0.13672,-0.0781 0.23438,-0.0391 l 1.44531,0.29297 q 0.15625,0.0391 0.23438,0.19531 0.0781,0.13672 0.0391,0.29297 l 1.73828,0.33203 q 0.0586,0.0195 0.13672,0.0977 0.0781,0.0586 0.11719,0.11718 3.98437,7.73438 3.98437,14.98047 0,3.30078 -0.83984,6.54297 z"
        style="font-style:normal;font-variant:normal;font-weight:bold;font-stretch:normal;font-family:Roddy;-inkscape-font-specification:'Roddy Bold';fill:#ffffff"
        id="path4578"/>
      <path
        d="m 477.69043,243.77063 q 0,-1.58203 1.28906,-1.79687 7.38281,-1.13282 9.51172,-4.29688 0.52734,-0.83984 0.52734,-1.54297 0,-1.75781 -3.55468,-3.35937 l -8.125,-3.61328 q -2.40235,-1.03516 -3.4375,-2.05078 -1.69922,-1.38672 -1.69922,-3.69141 0,-4.96094 5.29297,-9.55078 h -0.0195 q 3.78906,-3.53516 9.53125,-6.03516 0.0781,-0.0391 0.17578,-0.0195 0.11718,0.0195 0.19531,0.0586 0.64453,0.46875 0.64453,1.05469 0,0.76172 -1.11328,1.40625 l -3.41797,1.9336 q -8.51562,5.23437 -8.92578,10.89843 v 0.19532 q 0,1.60156 1.71875,2.73437 0.42969,0.27344 1.40625,0.72266 0.97656,0.44922 2.51953,1.11328 0.72266,0.3125 1.36719,0.60547 0.64453,0.27343 1.21094,0.50781 1.60156,0.68359 2.51953,1.09375 0.9375,0.39062 1.1914,0.50781 4.84375,2.67578 4.84375,5.56641 0,5.89844 -13.20312,8.16406 -0.19531,0.0391 -0.33203,-0.0781 -0.11719,-0.11719 -0.11719,-0.3125 z"
        style="font-style:normal;font-variant:normal;font-weight:bold;font-stretch:normal;font-family:Roddy;-inkscape-font-specification:'Roddy Bold';fill:#ffffff"
        id="path4580"/>
    </g>
    <path
      style="fill:none;fill-rule:evenodd;stroke:none;stroke-width:0.26458332px;stroke-linecap:butt;stroke-linejoin:miter;stroke-opacity:1"
      d="m 93.833926,245.068 c 0,0 3.986774,11.08259 4.223014,11.55506 0.23623,0.47247 2.57959,6.42536 2.81583,7.03957 0.23623,0.61421 1.2811,3.19376 2.0242,4.74421 0.42124,0.87891 0.95236,1.63414 1.37758,2.57907 0.42523,0.94495 1.22842,2.45685 1.7009,3.2128 0.47247,0.75595 1.88988,3.3073 2.12611,3.92151 0.23624,0.61421 1.22842,2.59858 1.65365,3.21279 0.42522,0.61421 1.88988,2.4096 2.59858,3.16555 0.70871,0.75595 3.3073,3.63802 3.77976,3.96875 0.47248,0.33074 4.29948,3.68527 4.72471,3.77976 0.42522,0.0945 2.55134,1.22843 3.02381,1.32292"
      id="path7548"
      inkscape:connector-curvature="0"
      sodipodi:nodetypes="cccssssccccc"/>
    <text
      xml:space="preserve"
      style="font-style:normal;font-variant:normal;font-weight:normal;font-stretch:normal;font-size:3.38462663px;line-height:3.55056px;font-family:Roboto;-inkscape-font-specification:'Roboto, weight=250';font-variant-ligatures:normal;font-variant-caps:normal;font-variant-numeric:normal;font-feature-settings:normal;text-align:center;letter-spacing:0px;word-spacing:0px;writing-mode:lr-tb;text-anchor:middle;fill:#000000;fill-opacity:1;stroke:none;stroke-width:0.16907428px;stroke-linecap:butt;stroke-linejoin:miter;stroke-opacity:1"
      id="text7447-1"
      transform="rotate(-0.76190372)"
      x="-5.2392216"
      y="4.1065645">
      <textPath xlink:href="#path7421-2" startOffset="50%" id="textPath7449-0">
        <tspan style="stroke-width:0.16907428px" id="tspan7445-8">
          <tspan id="tspan7443-5" style="font-style:normal;font-variant:normal;font-weight:bold;font-stretch:normal;font-family:Roddy;-inkscape-font-specification:'Roddy Bold';fill:#ffffff;stroke-width:0.16907428px" y="60.944984" x="78.569984">PASSA QUATRO - MG
          </tspan>
        </tspan>
      </textPath>
    </text>
    <g
      aria-label="PASSA QUATRO - MG                  "
      transform="rotate(-0.76190372,15676.328,659.9382)"
      style="font-style:normal;font-variant:normal;font-weight:normal;font-stretch:normal;font-size:3.38462663px;line-height:3.55056px;font-family:Roboto;-inkscape-font-specification:'Roboto, weight=250';font-variant-ligatures:normal;font-variant-caps:normal;font-variant-numeric:normal;font-feature-settings:normal;text-align:center;letter-spacing:0px;word-spacing:0px;writing-mode:lr-tb;text-anchor:middle;fill:#000000;fill-opacity:1;stroke:none;stroke-width:0.16907428px;stroke-linecap:butt;stroke-linejoin:miter;stroke-opacity:1"
      id="text7447-1-6">
      <path
        d="m 103.3789,41.397849 q -0.35555,-0.06478 -1.04819,-0.541921 l -1.15486,0.601985 q -0.007,0.0044 -0.0165,0.0077 -0.007,0.0044 -0.0181,0.0083 -0.11656,0.04214 -0.1705,-0.107067 -0.004,-0.01088 4.7e-4,-0.02301 0.005,-0.01058 0.0168,-0.01663 l 1.17687,-0.599402 q -0.0124,-0.01485 -0.0191,-0.0335 l -0.002,-0.0062 q -0.0244,-0.07728 0.044,-0.102001 0.0373,-0.01348 0.15239,0.05211 l 1.06947,-0.546516 q 0.007,-0.0044 0.0182,-0.0031 0.0126,7.3e-4 0.0179,0.0058 0.0192,0.01416 0.03,0.02957 0.0114,0.01696 0.0165,0.03095 0.0337,0.09325 -0.14238,0.179754 l -0.83315,0.42243 0.34298,0.209903 q 0.52576,0.326595 0.78843,0.231645 0.20981,-0.07585 0.18419,-0.409259 -0.006,-0.06623 -0.0491,-0.184354 -0.0343,-0.09481 -0.0969,-0.214519 -0.0626,-0.119711 -0.15311,-0.267997 l 0.002,-5.62e-4 q -0.0135,-0.01796 -0.0208,-0.03816 -0.032,-0.08859 0.0734,-0.137244 0.0103,-0.0055 0.0203,-0.0021 0.0121,0.0044 0.0186,0.0126 0.2238,0.293406 0.31875,0.556069 0.0921,0.254891 0.0654,0.482448 -0.0387,0.291637 -0.27492,0.377036 l -0.014,0.0051 q -0.0804,0.02555 -0.16709,0.02877 -0.0846,0.0042 -0.17535,-0.0087 z"
        style="font-style:normal;font-variant:normal;font-weight:bold;font-stretch:normal;font-family:Roddy;-inkscape-font-specification:'Roddy Bold';fill:#ffffff;stroke-width:0.16907428px"
        id="path5951"/>
      <path
        d="m 103.27327,42.635189 q 0.0405,0.150558 0.0558,0.275109 0.0153,0.124551 0.009,0.227193 l 0.90001,-0.552939 z m -1.30804,1.449655 q -0.0253,-0.06992 0.036,-0.12379 l 1.09076,-0.676561 q 0.0741,-0.265933 -0.023,-0.645571 l -1.52812,-0.04034 q -0.12495,-4.17e-4 -0.15423,-0.08121 -0.005,-0.01243 -0.004,-0.03544 -5.4e-4,-0.0209 0.006,-0.05139 0.006,-0.02682 0.0307,-0.02694 l 1.56964,0.0288 q -0.0318,-0.05877 -0.0785,-0.124478 -0.0461,-0.06415 -0.11026,-0.139338 -0.0162,-0.02049 4.7e-4,-0.04236 l 0.0756,-0.08718 q 0.0107,-0.0092 0.0222,-0.01155 0.0136,-0.0014 0.0243,0.0088 0.16123,0.148994 0.28324,0.398336 0.378,-0.01922 0.63386,-0.03108 0.25797,-0.01088 0.40651,-0.0085 0.38998,-7.09e-4 0.42095,0.08475 l 0.002,0.0047 q 0.003,0.0093 -2e-5,0.01934 -0.003,0.01158 -0.01,0.01594 -0.29039,0.212468 -0.94216,0.62095 -0.65178,0.408481 -1.66015,1.01651 -0.007,0.0044 -0.0182,0.0031 -0.0105,2.71e-4 -0.0179,-0.0058 -0.0427,-0.03549 -0.0534,-0.06501 z"
        style="font-style:normal;font-variant:normal;font-weight:bold;font-stretch:normal;font-family:Roddy;-inkscape-font-specification:'Roddy Bold';fill:#ffffff;stroke-width:0.16907428px"
        id="path5953"/>
      <path
        d="m 102.24543,44.725399 q 0.1258,-0.04576 0.18017,0.05052 0.30364,0.554294 0.61682,0.632053 0.082,0.01764 0.13795,-0.0027 0.13978,-0.05085 0.1643,-0.379836 l 0.0523,-0.750602 q 0.0128,-0.220972 0.0636,-0.332664 0.0611,-0.175232 0.24437,-0.241899 0.39449,-0.143506 0.91257,0.144608 l -5.7e-4,-0.0016 q 0.39072,0.199035 0.75561,0.583322 0.005,0.0051 0.007,0.01341 0.002,0.0099 9.9e-4,0.01723 -0.0186,0.06481 -0.0652,0.08176 -0.0606,0.02203 -0.14402,-0.04785 l -0.25263,-0.215855 q -0.66256,-0.525727 -1.12481,-0.394497 l -0.0155,0.0057 q -0.12736,0.04633 -0.16772,0.215768 -0.009,0.04208 -0.0168,0.132726 -0.007,0.09065 -0.0156,0.232551 -0.004,0.0665 -0.009,0.12623 -0.003,0.05916 -0.005,0.11098 -0.008,0.147126 -0.0141,0.231986 -0.004,0.08585 -0.006,0.109427 -0.0726,0.462565 -0.30251,0.546183 -0.46903,0.170624 -1.03111,-0.813718 -0.009,-0.0144 -0.003,-0.02866 0.006,-0.01271 0.0215,-0.01836 z"
        style="font-style:normal;font-variant:normal;font-weight:bold;font-stretch:normal;font-family:Roddy;-inkscape-font-specification:'Roddy Bold';fill:#ffffff;stroke-width:0.16907428px"
        id="path5955"/>
      <path
        d="m 102.83574,46.3461 q 0.12571,-0.046 0.18026,0.05019 0.30469,0.553723 0.61801,0.630893 0.0821,0.01749 0.13795,-0.003 0.13968,-0.05111 0.16358,-0.380145 l 0.0509,-0.750698 q 0.0124,-0.220996 0.063,-0.332783 0.0608,-0.175346 0.24393,-0.242358 0.39421,-0.144245 0.91283,0.142895 l -5.7e-4,-0.0016 q 0.39109,0.198302 0.75671,0.581903 0.005,0.0051 0.007,0.0134 0.002,0.0099 0.001,0.01722 -0.0185,0.06485 -0.0651,0.08188 -0.0605,0.02215 -0.14412,-0.04758 l -0.25303,-0.21538 q -0.66354,-0.524482 -1.12555,-0.392385 l -0.0155,0.0057 q -0.12727,0.04657 -0.16731,0.216083 -0.009,0.04209 -0.0165,0.132757 -0.007,0.09066 -0.0152,0.23258 -0.004,0.06651 -0.008,0.126245 -0.003,0.05917 -0.005,0.11099 -0.008,0.147142 -0.0137,0.232012 -0.004,0.08586 -0.006,0.109438 -0.0718,0.462702 -0.30148,0.54675 -0.46871,0.171504 -1.03264,-0.811781 -0.009,-0.01438 -0.003,-0.02866 0.006,-0.01272 0.0214,-0.0184 z"
        style="font-style:normal;font-variant:normal;font-weight:bold;font-stretch:normal;font-family:Roddy;-inkscape-font-specification:'Roddy Bold';fill:#ffffff;stroke-width:0.16907428px"
        id="path5957"/>
      <path
        d="m 105.13818,47.743596 q 0.0419,0.150187 0.0582,0.274596 0.0164,0.124408 0.0106,0.227107 l 0.89499,-0.56102 z m -1.29494,1.461373 q -0.026,-0.06969 0.0349,-0.124109 l 1.08462,-0.686354 q 0.0717,-0.266589 -0.0288,-0.645338 l -1.52842,-0.02658 q -0.12495,7.08e-4 -0.15496,-0.07982 -0.005,-0.01239 -0.004,-0.03541 -7.3e-4,-0.02089 0.006,-0.05144 0.006,-0.02688 0.0304,-0.02721 l 1.56983,0.01467 q -0.0324,-0.05848 -0.0796,-0.123766 -0.0467,-0.06374 -0.11152,-0.138339 -0.0164,-0.02034 9e-5,-0.04236 l 0.0748,-0.08785 q 0.0107,-0.0093 0.0221,-0.01175 0.0135,-0.0015 0.0243,0.0086 0.16256,0.147537 0.28681,0.39577 0.37781,-0.02262 0.63356,-0.03679 0.25786,-0.0132 0.40641,-0.01212 0.38996,-0.0042 0.4217,0.08096 l 0.002,0.0046 q 0.003,0.0093 1.6e-4,0.01934 -0.003,0.0116 -0.01,0.01603 -0.28846,0.215074 -0.93653,0.629407 -0.64807,0.414333 -1.65093,1.031417 -0.007,0.0044 -0.0182,0.0032 -0.0104,3.66e-4 -0.018,-0.0056 -0.0431,-0.0351 -0.054,-0.06452 z"
        style="font-style:normal;font-variant:normal;font-weight:bold;font-stretch:normal;font-family:Roddy;-inkscape-font-specification:'Roddy Bold';fill:#ffffff;stroke-width:0.16907428px"
        id="path5959"/>
      <path
        d="m 104.56462,51.728845 q -0.01,-0.01041 -0.008,-0.02514 0.001,-0.01473 0.0122,-0.02274 l 0.33899,-0.277413 q -0.11836,-0.07702 -0.16547,-0.136432 -0.10805,-0.122161 -0.16057,-0.252449 -0.11121,-0.275905 0.0901,-0.519192 0.15604,-0.17872 0.44727,-0.296115 0.51042,-0.205751 1.13187,-0.206795 0.24643,-0.0031 0.53038,0.02498 0.28456,0.02962 0.62201,0.09317 0.008,0.0021 0.0147,0.01009 0.009,0.0089 0.009,0.01778 l 0.0188,0.134982 q 0.002,0.01871 -0.01,0.02887 -0.0119,0.01016 -0.0279,0.0059 -1.33177,-0.293518 -2.18094,0.04878 -0.25598,0.103184 -0.38447,0.252983 -0.0808,0.09136 -0.10264,0.178577 -0.0213,0.08875 0.0121,0.171519 0.0834,0.206929 0.30312,0.314368 0.12706,-0.113581 0.25016,-0.214877 0.12525,-0.10038 0.24654,-0.188474 0.011,-0.008 0.0236,-0.0077 0.0132,0.0018 0.0206,0.0113 l 0.064,0.07931 q 0.0182,0.02297 -0.002,0.04358 -0.0854,0.07542 -0.18555,0.158544 -0.10014,0.08313 -0.21743,0.176735 0.53226,0.03848 1.13005,-0.202493 0.0598,-0.0241 0.11985,-0.05188 0.0601,-0.02778 0.12199,-0.05986 0.33927,-0.170615 0.71107,-0.689331 0.0116,-0.01538 0.0279,-0.0148 0.0163,5.7e-4 0.0268,0.01773 l 0.0669,0.117361 q 0.005,0.007 0.004,0.0181 -2.7e-4,0.01258 -0.005,0.01812 -0.19442,0.286848 -0.44583,0.489759 -0.24989,0.202294 -0.56105,0.327721 -0.16247,0.06549 -0.32346,0.112571 -0.161,0.04708 -0.32878,0.07729 -0.19019,0.03212 -0.3688,0.03106 -0.17708,-0.0017 -0.34598,-0.04051 l -0.39469,0.333722 q -0.011,0.008 -0.0236,0.0077 -0.012,0.0013 -0.02,-0.0098 z"
        style="font-style:normal;font-variant:normal;font-weight:bold;font-stretch:normal;font-family:Roddy;-inkscape-font-specification:'Roddy Bold';fill:#ffffff;stroke-width:0.16907428px"
        id="path5961"/>
      <path
        d="m 107.16421,53.285562 q -0.53241,0.119102 -0.97846,0.04383 -0.56293,-0.0964 -0.82815,-0.472942 -0.0239,-0.0332 -0.0385,-0.06116 -0.0156,-0.02581 -0.0247,-0.04885 -0.0494,-0.124402 -0.0219,-0.247403 0.0297,-0.122075 0.13467,-0.247357 l -9.3e-4,0.0021 q 0.23235,-0.287954 2.17317,-1.123234 0.0123,-0.0049 0.0252,6.7e-4 0.0144,0.0049 0.0193,0.01723 0.002,0.0046 0.004,0.0092 0.004,0.0055 0.005,0.0086 0.0232,0.05836 0.007,0.09699 -0.016,0.04017 -0.0661,0.06184 l -1.09981,0.508188 q -0.32381,0.151795 -0.53644,0.270083 -0.2111,0.117677 -0.31688,0.209506 l 0.002,-6.1e-4 q -0.14975,0.128863 -0.16905,0.250348 -0.002,0.01687 5.3e-4,0.03713 0.003,0.02026 0.0131,0.04637 0.0159,0.03993 0.0495,0.0888 0.0352,0.04826 0.086,0.104536 0.19134,0.208503 0.52598,0.285365 l -6.1e-4,-0.0015 q 0.10491,0.02233 0.25894,0.03403 0.15557,0.01109 0.36456,0.0134 0.20808,-0.0044 0.59071,-0.115595 0.38417,-0.111763 0.94168,-0.33331 l 0.10136,-0.04028 q 0.13208,-0.05249 0.21686,0.04898 0.0129,0.01445 0.008,0.02887 -0.003,0.0138 -0.0182,0.02144 -0.0955,0.04152 -0.17325,0.07418 -0.0756,0.03359 -0.14468,0.06105 -0.37167,0.147698 -0.64654,0.239146 -0.27334,0.09084 -0.46217,0.130308 z"
        style="font-style:normal;font-variant:normal;font-weight:bold;font-stretch:normal;font-family:Roddy;-inkscape-font-specification:'Roddy Bold';fill:#ffffff;stroke-width:0.16907428px"
        id="path5963"/>
      <path
        d="m 107.71723,54.209714 q 0.0447,0.149371 0.0634,0.273448 0.0187,0.124078 0.0148,0.226868 l 0.88426,-0.577801 z m -1.26715,1.485537 q -0.0273,-0.06919 0.0325,-0.124745 l 1.07149,-0.70669 q 0.0667,-0.267894 -0.041,-0.644678 l -1.52865,0.0023 q -0.12492,0.0031 -0.15644,-0.07688 -0.005,-0.0123 -0.005,-0.03532 -0.001,-0.02087 0.005,-0.05154 0.005,-0.02698 0.0299,-0.02778 l 1.56984,-0.01494 q -0.0335,-0.05786 -0.082,-0.122242 -0.0479,-0.06284 -0.11411,-0.136211 -0.0168,-0.02003 -7.1e-4,-0.04236 l 0.0732,-0.08925 q 0.0105,-0.0095 0.0219,-0.01217 0.0135,-0.0018 0.0245,0.0081 0.16531,0.144444 0.29422,0.39029 0.37732,-0.02974 0.63275,-0.04873 0.25757,-0.01806 0.40611,-0.01978 0.38981,-0.01157 0.42315,0.07299 l 0.002,0.0046 q 0.004,0.0092 5.2e-4,0.01934 -0.003,0.01165 -0.01,0.01622 -0.28436,0.220476 -0.9245,0.646959 -0.64014,0.426482 -1.63117,1.062371 -0.007,0.0046 -0.0181,0.0036 -0.0104,5.62e-4 -0.0181,-0.0053 -0.0437,-0.03428 -0.0552,-0.06349 z"
        style="font-style:normal;font-variant:normal;font-weight:bold;font-stretch:normal;font-family:Roddy;-inkscape-font-specification:'Roddy Bold';fill:#ffffff;stroke-width:0.16907428px"
        id="path5965"/>
      <path
        d="m 108.55596,55.107899 q -0.0115,-0.0292 0.001,-0.05922 0.0152,-0.02909 0.0505,-0.04306 0.0154,-0.0061 0.032,-0.0091 0.0172,-0.0015 0.0371,-4.56e-4 0.0169,0.0022 0.0395,0.01459 0.0242,0.01176 0.0597,0.03862 0.037,0.02624 0.0859,0.06911 0.0511,0.0438 0.11893,0.107613 l -6.1e-4,-0.0015 q 0.13511,0.126096 0.27135,0.273065 0.13686,0.148506 0.28864,0.32132 0.15394,0.173744 0.24859,0.287392 0.0953,0.115184 0.1392,0.172453 0.0476,0.05759 0.0745,0.09852 0.0268,0.04093 0.0359,0.06399 0.0255,0.06456 -0.0552,0.121294 l -0.002,6.07e-4 q -0.0645,0.0255 -0.16556,-0.108733 l 6.1e-4,0.0015 q -0.14046,-0.166628 -0.2617,-0.307088 -0.1197,-0.141068 -0.22353,-0.259971 l 6e-4,0.0015 q -0.3843,0.160705 -0.69915,0.299304 -0.31424,0.140136 -0.56117,0.257236 -0.24479,0.118029 -0.49419,0.23788 -0.24787,0.119243 -0.51325,0.24363 l -0.0154,0.0061 q -0.12757,0.0504 -0.17858,-0.07871 l -0.006,-0.01537 q -0.005,-0.0123 7.2e-4,-0.02516 0.005,-0.01072 0.0148,-0.01651 0.0806,-0.03894 0.16021,-0.07573 0.0818,-0.03586 0.16236,-0.0748 0.0541,-0.02493 0.10763,-0.05141 0.0535,-0.02647 0.1061,-0.0508 0.16729,-0.08031 0.33212,-0.157859 0.0904,-0.04104 0.18019,-0.08363 0.0898,-0.04258 0.17898,-0.0867 0.21834,-0.104025 0.41051,-0.188828 0.19431,-0.08387 0.36954,-0.153096 0.14294,-0.05647 0.26773,-0.100438 0.0384,-0.01518 0.0608,-0.01693 -0.0819,-0.09027 -0.14908,-0.161447 -0.0672,-0.07118 -0.12467,-0.126665 -0.1415,-0.137785 -0.23137,-0.221336 -0.0893,-0.08201 -0.13972,-0.124274 z"
        style="font-style:normal;font-variant:normal;font-weight:bold;font-stretch:normal;font-family:Roddy;-inkscape-font-specification:'Roddy Bold';fill:#ffffff;stroke-width:0.16907428px"
        id="path5967"/>
      <path
        d="m 110.21209,57.475844 q -0.0824,-0.09455 -0.1975,-0.198755 -0.11445,-0.102678 -0.2631,-0.214369 l -1.08233,0.43173 q 0.17952,0.06121 0.31149,0.102861 0.1335,0.04101 0.23026,0.06691 0.171,0.04507 0.33068,0.07158 0.15968,0.02651 0.30995,0.03904 0.22311,0.01975 0.35049,0.02034 0.12891,-4.7e-5 0.16552,-0.01532 l 0.002,-6.36e-4 q 0.0488,-0.02036 0.0361,-0.05086 l -6.4e-4,-0.0015 q -0.0136,-0.02835 -0.0612,-0.09087 -0.046,-0.06317 -0.13125,-0.160133 z m -2.15798,1.068386 q -0.0164,-0.279673 0.17576,-0.86656 -0.0927,0.04402 -0.18379,0.0874 -0.0911,0.04338 -0.18075,0.08613 -0.1088,0.05254 -0.2054,0.09999 -0.0966,0.04745 -0.1843,0.09478 l 8.9e-4,-0.0022 q -0.006,0.0062 -0.0109,0.0081 -0.005,0.0019 -0.008,0.0032 -0.0915,0.03817 -0.16391,-0.10533 -0.007,-0.01157 -0.001,-0.02454 0.005,-0.01297 0.0169,-0.01958 0.18532,-0.08804 0.35539,-0.169715 0.17223,-0.08079 0.33225,-0.156486 0.31916,-0.149234 0.64253,-0.284104 0.31726,-0.132326 0.9495,-0.363797 -0.12092,-0.08386 -0.25176,-0.152843 -0.0136,-0.0069 -0.0187,-0.01906 -0.004,-0.01284 0.005,-0.02555 l 0.0567,-0.09168 q 0.005,-0.0093 0.0173,-0.01437 0.0128,-0.0036 0.0221,0.0015 0.0664,0.02604 0.15957,0.08207 0.0938,0.05756 0.21668,0.145991 l 0.0871,-0.02736 q 0.008,-0.0017 0.0184,0.0013 0.0102,0.0029 0.0164,0.0093 0.0193,0.02059 0.0276,0.04042 0.0204,0.04881 -0.0134,0.08798 0.17701,0.141048 0.31372,0.275626 0.13734,0.136104 0.24024,0.266881 0.0729,0.09316 0.1015,0.161796 0.0795,0.190661 -0.0928,0.26255 -0.12203,0.05089 -0.58211,0.0297 -0.58759,-0.03068 -1.46221,-0.358863 -0.0689,0.139737 -0.12482,0.404817 -0.0263,0.13451 -0.0458,0.246516 -0.018,0.111369 -0.0233,0.210276 -0.008,0.126875 0.0417,0.245848 0.0585,0.140327 0.24382,0.344173 l -0.002,-8.9e-4 q 0.0312,0.03177 0.0388,0.05007 0.0235,0.05644 -0.039,0.08252 l -0.0107,0.0045 q -0.0834,0.02762 -0.17737,-0.06032 l 6.4e-4,0.0015 q -0.1493,-0.134701 -0.24345,-0.360445 -0.0464,-0.111346 -0.0553,-0.231224 z"
        style="font-style:normal;font-variant:normal;font-weight:bold;font-stretch:normal;font-family:Roddy;-inkscape-font-specification:'Roddy Bold';fill:#ffffff;stroke-width:0.16907428px"
        id="path5969"/>
      <path
        d="m 109.96422,60.022538 q 0.52319,-0.230743 1.00329,-0.825404 -0.54201,-0.05357 -0.9975,-0.0297 -0.45548,0.02387 -0.83804,0.131176 -0.0974,0.02489 -0.17936,0.05201 -0.0798,0.02796 -0.14481,0.05664 -0.54587,0.240746 -0.42983,0.503855 0.0293,0.06653 0.10244,0.146281 l -6.7e-4,-0.0015 q 0.24243,0.250717 1.03,0.107483 0.11803,-0.02315 0.23073,-0.05841 0.11336,-0.03374 0.22375,-0.08242 z m -0.46442,0.331256 q -0.22597,0.03644 -0.40252,0.04567 -0.17655,0.0092 -0.31544,-0.0108 -0.43408,-0.06685 -0.58213,-0.402542 -0.19139,-0.433979 0.50418,-0.740747 0.25404,-0.112037 0.5348,-0.179866 0.28294,-0.06698 0.59998,-0.0894 0.2405,-0.01576 0.52859,-0.0055 0.2896,0.0096 0.63852,0.04713 0.01,0.0012 0.0181,0.0083 0.0107,0.0079 0.011,0.01681 l 0.0267,0.1219 q 0.002,0.01343 -0.007,0.02481 -0.008,0.01072 -0.0213,0.01303 l 0.0336,0.145916 q 4.9e-4,0.0052 -0.003,0.01392 -0.002,0.008 -0.005,0.01307 -0.46276,0.57256 -1.02375,0.819975 -0.25555,0.112704 -0.53524,0.158386 z"
        style="font-style:normal;font-variant:normal;font-weight:bold;font-stretch:normal;font-family:Roddy;-inkscape-font-specification:'Roddy Bold';fill:#ffffff;stroke-width:0.16907428px"
        id="path5971"/>
      <path
        d="m 110.43267,61.612804 q -0.0718,-0.126487 0.0381,-0.190729 0.11499,-0.06525 0.18758,0.06267 l 0.33375,0.604892 q 0.0677,0.1193 -0.0473,0.184551 -0.11149,0.06137 -0.17838,-0.0565 z"
        style="font-style:normal;font-variant:normal;font-weight:bold;font-stretch:normal;font-family:Roddy;-inkscape-font-specification:'Roddy Bold';fill:#ffffff;stroke-width:0.16907428px"
        id="path5973"/>
      <path
        d="m 111.57052,63.638782 q 0.35602,-0.141717 0.66106,-0.27079 0.30504,-0.129073 0.5687,-0.255865 0.0162,-0.0082 0.0303,0.0014 0.0163,0.01032 0.0156,0.03102 -0.007,0.166305 -0.0336,0.227691 -0.0258,0.05917 -0.056,0.105776 -0.0302,0.04661 -0.0619,0.08287 -0.0701,0.07771 -0.16015,0.1525 -0.0893,0.07626 -0.19635,0.157729 -0.1388,0.09556 -0.33664,0.246638 -0.19637,0.150338 -0.45252,0.351028 0.2461,-0.01073 0.74634,-0.08615 0.2372,-0.03584 0.4234,-0.06274 0.18621,-0.02689 0.32587,-0.04707 0.13966,-0.02017 0.25863,-0.03366 0.12045,-0.01423 0.22169,-0.02251 0.25717,-0.01814 0.29869,0.06458 0.0156,0.03102 0.0105,0.06502 -0.004,0.146346 -0.3779,0.333913 l -0.0561,0.02817 q -0.0606,0.0304 -0.18907,0.0912 -0.12703,0.06006 -0.32644,0.152757 -0.19793,0.09195 -0.38183,0.178711 -0.18242,0.08602 -0.35672,0.169803 -0.0524,0.02447 -0.10118,0.04894 -0.0487,0.02446 -0.096,0.04819 -0.11077,0.0556 -0.20604,0.105269 -0.093,0.0504 -0.17427,0.09857 -0.11593,0.06744 -0.2481,0.150419 -0.13069,0.08224 -0.28131,0.183729 -0.01,0.0067 -0.0222,0.0037 -0.0133,-7.18e-4 -0.0215,-0.0096 -0.0156,-0.01993 -0.0274,-0.04356 -0.0482,-0.09601 0.0515,-0.184852 0.15062,-0.101488 0.37584,-0.231177 0.22744,-0.128953 0.5317,-0.289067 0.17799,-0.0801 0.33235,-0.152027 0.15658,-0.0712 0.29247,-0.135706 0.13589,-0.06451 0.29394,-0.140143 0.15952,-0.07637 0.34637,-0.168308 0.15068,-0.06453 0.24964,-0.114206 0.0709,-0.03559 0.11298,-0.06226 -0.0273,7.82e-4 -0.0576,0.003 -0.0281,0.003 -0.0636,0.006 -0.0695,0.0053 -0.16478,0.01799 -0.0953,0.01271 -0.21724,0.03507 -0.054,0.0067 -0.11527,0.01718 -0.0598,0.0097 -0.13227,0.02016 -0.0961,0.01493 -0.2165,0.03285 -0.1197,0.0194 -0.26823,0.04033 -0.14852,0.02092 -0.33178,0.04264 -0.18104,0.02245 -0.40126,0.04423 -0.36953,0.01166 -0.40659,-0.06219 -0.0237,-0.04727 0.0132,-0.08797 l -0.002,0.003 q 0.11801,-0.155391 0.61118,-0.506482 0.2488,-0.178505 0.40383,-0.293304 0.15651,-0.115539 0.22146,-0.174028 0.0332,-0.02961 0.059,-0.05552 0.0273,-0.02665 0.0487,-0.05033 -0.14181,0.06378 -0.33015,0.145372 -0.18686,0.08085 -0.421,0.178032 -0.28067,0.118689 -0.61159,0.244107 -0.3287,0.126153 -0.71134,0.259042 -0.0894,0.03931 -0.1383,-0.05817 -0.007,-0.01477 -0.0134,-0.03028 -0.006,-0.01551 -0.0104,-0.03177 -0.003,-0.0133 0.002,-0.02513 0.006,-0.01036 0.0185,-0.01481 0.17137,-0.06383 0.32353,-0.121711 0.15438,-0.05715 0.29325,-0.108361 0.18762,-0.06829 0.34421,-0.128395 0.15734,-0.05863 0.2903,-0.110573 z"
        style="font-style:normal;font-variant:normal;font-weight:bold;font-stretch:normal;font-family:Roddy;-inkscape-font-specification:'Roddy Bold';fill:#ffffff;stroke-width:0.16907428px"
        id="path5975"/>
      <path
        d="m 111.68692,66.388121 8.3e-4,0.0014 z m 0.98819,0.820129 q -0.64233,0.01845 -0.92116,-0.291826 -0.0467,-0.06083 -0.081,-0.113535 -0.0343,-0.0527 -0.0608,-0.09847 -0.10512,-0.181665 -0.11638,-0.329811 -0.0239,-0.318423 0.12959,-0.521785 0.0576,-0.07534 0.16067,-0.157894 0.10308,-0.08255 0.25139,-0.176014 l 0.0229,-0.01324 q 0.20312,-0.117536 0.70954,-0.288375 0.50642,-0.170838 1.32066,-0.393775 0.0182,-0.0048 0.03,0.0056 0.014,0.01099 0.0114,0.02966 -0.003,0.04389 -0.0105,0.07098 -0.005,0.0277 -0.0123,0.04147 -0.0111,0.02363 -0.0369,0.03853 -0.0243,0.01407 -0.11579,0.04409 -0.09,0.02919 -0.25068,0.07823 l -0.70358,0.216187 0.002,6.02e-4 q -0.17579,0.05589 -0.31799,0.10381 -0.14221,0.04792 -0.25431,0.09178 -0.0798,0.02708 -0.15403,0.06049 -0.072,0.03401 -0.1392,0.07291 -0.31898,0.184581 -0.40597,0.360934 -0.0708,0.138342 -0.0461,0.349346 l -0.001,-0.0051 q 0.0426,0.139572 0.10796,0.252576 0.0778,0.13446 0.19002,0.226096 0.1993,0.15963 0.66519,0.149723 0.49479,-0.0095 0.76657,-0.166716 0.0844,-0.04883 0.0687,-0.07601 -0.0224,-0.03862 -0.22557,-0.165432 l 8.3e-4,0.0014 -0.28051,-0.168004 0.001,-8.28e-4 q -0.21753,-0.118533 -0.36148,-0.317821 -0.006,-0.0078 -0.0122,-0.01777 -0.005,-0.0086 -0.009,-0.01574 -0.0712,-0.123017 0.0118,-0.171025 0.003,-0.0017 0.007,-0.0041 0.005,-0.0011 0.008,-0.0027 0.0716,-0.02806 0.15309,0.106173 l -8.3e-4,-0.0014 q 0.11762,0.180162 0.71313,0.522952 0.11824,0.06906 0.16625,0.15202 0.10264,0.177373 -0.14626,0.321396 -0.24317,0.140712 -0.83343,0.199672 z"
        style="font-style:normal;font-variant:normal;font-weight:bold;font-stretch:normal;font-family:Roddy;-inkscape-font-specification:'Roddy Bold';fill:#ffffff;stroke-width:0.16907428px"
        id="path5977"/>
    </g>
  </g>
</svg>
